<svg width="88" height="88" viewBox="0 0 88 88" fill="none" xmlns="http://www.w3.org/2000/svg">
<g clip-path="url(#clip0_9_151)">
<path d="M33 74.2497H16.5C15.7707 74.2497 15.0712 73.96 14.5555 73.4442C14.0397 72.9285 13.75 72.229 13.75 71.4997V56.1341C13.7488 55.777 13.818 55.4231 13.9536 55.0928C14.0893 54.7625 14.2888 54.4622 14.5406 54.2091L55.7906 12.9591C56.0465 12.6992 56.3515 12.4929 56.6879 12.3521C57.0243 12.2112 57.3853 12.1387 57.75 12.1387C58.1147 12.1387 58.4757 12.2112 58.8121 12.3521C59.1485 12.4929 59.4535 12.6992 59.7094 12.9591L75.0406 28.2903C75.3005 28.5462 75.5068 28.8512 75.6477 29.1876C75.7885 29.524 75.8611 29.885 75.8611 30.2497C75.8611 30.6144 75.7885 30.9754 75.6477 31.3118C75.5068 31.6482 75.3005 31.9532 75.0406 32.2091L33 74.2497Z" stroke="black" stroke-width="2" stroke-linecap="round" stroke-linejoin="round"/>
<path d="M46.75 22L66 41.25" stroke="black" stroke-width="2" stroke-linecap="round" stroke-linejoin="round"/>
<path d="M74.25 74.25H33L13.9219 55.1719" stroke="black" stroke-width="2" stroke-linecap="round" stroke-linejoin="round"/>
<path d="M56.375 31.625L23.375 64.625" stroke="black" stroke-width="2" stroke-linecap="round" stroke-linejoin="round"/>
</g>
<defs>
<clipPath id="clip0_9_151">
<rect width="88" height="88" fill="white"/>
</clipPath>
</defs>
</svg>
